<?xml version="1.0" encoding="utf-8"?><svg width="auto" height="3220" style="overflow:visible " version="1.1" xmlns="http://www.w3.org/2000/svg"><rect x="20" y="20" width="200" height="40" style="fill:white;stroke:black;stroke-width:1" /><text x="30" y="30" font-size="10" style="fill:blue">rutas</text><rect x="240" y="20" width="200" height="40" style="fill:white;stroke:black;stroke-width:1" /><text x="250" y="30" font-size="10" style="fill:blue">ruta</text><path d="M220 40 C240 40 220 40 240 40" style="fill:transparent;stroke:black" /><text x="250" y="40" font-size="8" style="fill:black">nombre: Cusco</text><text x="250" y="50" font-size="8" style="fill:black">tipo: Arquitectura y monumentos</text><text x="250" y="60" font-size="8" style="fill:black">medio-transporte: andando</text><text x="250" y="70" font-size="8" style="fill:black">duracion: 3 días</text><text x="250" y="80" font-size="8" style="fill:black">lugar-inicio: Plaza de Armas</text><text x="250" y="90" font-size="8" style="fill:black">direccion-inicio: Del Medio 123, Cusco 08000, Peru</text><text x="250" y="100" font-size="8" style="fill:black">coordenadas-inicio: -13.516573771916507, -71.97873383105876</text><text x="250" y="110" font-size="8" style="fill:black">recomendacion: 8</text><rect x="460" y="20" width="200" height="40" style="fill:white;stroke:black;stroke-width:1" /><text x="470" y="30" font-size="10" style="fill:blue">agencia</text><path d="M440 40 C460 40 440 40 460 40" style="fill:transparent;stroke:black" /><rect x="526" y="20" width="137" height="40" style="fill:green;stroke:black;stroke-width:1" /><text x="536" y="30" font-size="8" style="fill:white">Sin agencia</text><rect x="460" y="70" width="200" height="40" style="fill:white;stroke:black;stroke-width:1" /><text x="470" y="80" font-size="10" style="fill:blue">descripcion</text><path d="M440 40 C460 40 440 90 460 90" style="fill:transparent;stroke:black" /><rect x="526" y="70" width="137" height="40" style="fill:green;stroke:black;stroke-width:1" /><text x="536" y="80" font-size="8" style="fill:white">Visitar hoy esta ciudad colonial declarada Patrimonio de la Humanidad es
            caminar por un legado tangible de un imperio fascinante.</text><rect x="460" y="120" width="200" height="40" style="fill:white;stroke:black;stroke-width:1" /><text x="470" y="130" font-size="10" style="fill:blue">personas-adecuadas</text><path d="M440 40 C460 40 440 140 460 140" style="fill:transparent;stroke:black" /><rect x="526" y="120" width="137" height="40" style="fill:green;stroke:black;stroke-width:1" /><text x="536" y="130" font-size="8" style="fill:white">1-5</text><rect x="460" y="170" width="200" height="40" style="fill:white;stroke:black;stroke-width:1" /><text x="470" y="180" font-size="10" style="fill:blue">referencias</text><path d="M440 40 C460 40 440 190 460 190" style="fill:transparent;stroke:black" /><rect x="680" y="170" width="200" height="40" style="fill:white;stroke:black;stroke-width:1" /><text x="690" y="180" font-size="10" style="fill:blue">referencia</text><path d="M660 190 C680 190 660 190 680 190" style="fill:transparent;stroke:black" /><rect x="746" y="170" width="137" height="40" style="fill:green;stroke:black;stroke-width:1" /><text x="756" y="180" font-size="8" style="fill:white">https://www.viajeroscallejeros.com/lugares-que-visitar-en-cusco/</text><rect x="680" y="220" width="200" height="40" style="fill:white;stroke:black;stroke-width:1" /><text x="690" y="230" font-size="10" style="fill:blue">referencia</text><path d="M660 190 C680 190 660 240 680 240" style="fill:transparent;stroke:black" /><rect x="746" y="220" width="137" height="40" style="fill:green;stroke:black;stroke-width:1" /><text x="756" y="230" font-size="8" style="fill:white">https://www.viajandoporelmundomundial.com/que-ver-en-cuzco/</text><rect x="680" y="270" width="200" height="40" style="fill:white;stroke:black;stroke-width:1" /><text x="690" y="280" font-size="10" style="fill:blue">referencia</text><path d="M660 190 C680 190 660 290 680 290" style="fill:transparent;stroke:black" /><rect x="746" y="270" width="137" height="40" style="fill:green;stroke:black;stroke-width:1" /><text x="756" y="280" font-size="8" style="fill:white">
                https://www.tripadvisor.es/Attractions-g294314-Activities-Cusco_Cusco_Region.html</text><rect x="460" y="370" width="200" height="40" style="fill:white;stroke:black;stroke-width:1" /><text x="470" y="380" font-size="10" style="fill:blue">hitos</text><path d="M440 40 C460 40 440 390 460 390" style="fill:transparent;stroke:black" /><rect x="680" y="370" width="200" height="40" style="fill:white;stroke:black;stroke-width:1" /><text x="690" y="380" font-size="10" style="fill:blue">hito</text><path d="M660 390 C680 390 660 390 680 390" style="fill:transparent;stroke:black" /><text x="690" y="390" font-size="8" style="fill:black">nombre: Plaza de Armas</text><text x="690" y="400" font-size="8" style="fill:black">coordenadas: -13.516573771916507, -71.97873383105876</text><text x="690" y="410" font-size="8" style="fill:black">distancia-hito-anterior: 0km</text><rect x="900" y="370" width="200" height="40" style="fill:white;stroke:black;stroke-width:1" /><text x="910" y="380" font-size="10" style="fill:blue">galeria-fotos</text><path d="M880 390 C900 390 880 390 900 390" style="fill:transparent;stroke:black" /><rect x="1120" y="370" width="200" height="40" style="fill:white;stroke:black;stroke-width:1" /><text x="1130" y="380" font-size="10" style="fill:blue">foto</text><path d="M1100 390 C1120 390 1100 390 1120 390" style="fill:transparent;stroke:black" /><rect x="1186" y="370" width="137" height="40" style="fill:green;stroke:black;stroke-width:1" /><text x="1196" y="380" font-size="8" style="fill:white">plaza-de-armas.jpeg</text><rect x="900" y="470" width="200" height="40" style="fill:white;stroke:black;stroke-width:1" /><text x="910" y="480" font-size="10" style="fill:blue">galeria-videos</text><path d="M880 390 C900 390 880 490 900 490" style="fill:transparent;stroke:black" /><rect x="680" y="570" width="200" height="40" style="fill:white;stroke:black;stroke-width:1" /><text x="690" y="580" font-size="10" style="fill:blue">hito</text><path d="M660 390 C680 390 660 590 680 590" style="fill:transparent;stroke:black" /><text x="690" y="590" font-size="8" style="fill:black">nombre: Muyuq Marka</text><text x="690" y="600" font-size="8" style="fill:black">coordenadas: -13.509062864301848, -71.98276787613783</text><text x="690" y="610" font-size="8" style="fill:black">distancia-hito-anterior: 1.6km</text><rect x="900" y="570" width="200" height="40" style="fill:white;stroke:black;stroke-width:1" /><text x="910" y="580" font-size="10" style="fill:blue">galeria-fotos</text><path d="M880 590 C900 590 880 590 900 590" style="fill:transparent;stroke:black" /><rect x="1120" y="570" width="200" height="40" style="fill:white;stroke:black;stroke-width:1" /><text x="1130" y="580" font-size="10" style="fill:blue">foto</text><path d="M1100 590 C1120 590 1100 590 1120 590" style="fill:transparent;stroke:black" /><rect x="1186" y="570" width="137" height="40" style="fill:green;stroke:black;stroke-width:1" /><text x="1196" y="580" font-size="8" style="fill:white">muyuq-maya.peg</text><rect x="900" y="670" width="200" height="40" style="fill:white;stroke:black;stroke-width:1" /><text x="910" y="680" font-size="10" style="fill:blue">galeria-videos</text><path d="M880 590 C900 590 880 690 900 690" style="fill:transparent;stroke:black" /><rect x="680" y="770" width="200" height="40" style="fill:white;stroke:black;stroke-width:1" /><text x="690" y="780" font-size="10" style="fill:blue">hito</text><path d="M660 390 C680 390 660 790 680 790" style="fill:transparent;stroke:black" /><text x="690" y="790" font-size="8" style="fill:black">nombre: Qorikancha</text><text x="690" y="800" font-size="8" style="fill:black">coordenadas: -13.520069582584924, -71.97522315999254</text><text x="690" y="810" font-size="8" style="fill:black">distancia-hito-anterior: 2.0km</text><rect x="900" y="770" width="200" height="40" style="fill:white;stroke:black;stroke-width:1" /><text x="910" y="780" font-size="10" style="fill:blue">galeria-fotos</text><path d="M880 790 C900 790 880 790 900 790" style="fill:transparent;stroke:black" /><rect x="1120" y="770" width="200" height="40" style="fill:white;stroke:black;stroke-width:1" /><text x="1130" y="780" font-size="10" style="fill:blue">foto</text><path d="M1100 790 C1120 790 1100 790 1120 790" style="fill:transparent;stroke:black" /><rect x="1186" y="770" width="137" height="40" style="fill:green;stroke:black;stroke-width:1" /><text x="1196" y="780" font-size="8" style="fill:white">qorikancha.jpeg</text><rect x="900" y="870" width="200" height="40" style="fill:white;stroke:black;stroke-width:1" /><text x="910" y="880" font-size="10" style="fill:blue">galeria-videos</text><path d="M880 790 C900 790 880 890 900 890" style="fill:transparent;stroke:black" /><rect x="240" y="1070" width="200" height="40" style="fill:white;stroke:black;stroke-width:1" /><text x="250" y="1080" font-size="10" style="fill:blue">ruta</text><path d="M220 40 C240 40 220 1090 240 1090" style="fill:transparent;stroke:black" /><text x="250" y="1090" font-size="8" style="fill:black">nombre: Machu Picchu</text><text x="250" y="1100" font-size="8" style="fill:black">tipo: Paisajística</text><text x="250" y="1110" font-size="8" style="fill:black">medio-transporte: andando</text><text x="250" y="1120" font-size="8" style="fill:black">duracion: 2 horas</text><text x="250" y="1130" font-size="8" style="fill:black">lugar-inicio: Sanctuary Lodge, A Belmond Hotel, Machu Picchu</text><text x="250" y="1140" font-size="8" style="fill:black">direccion-inicio: Carretera Hiram Bingham Km 7.5, Aguas Calientes 08680, Peru</text><text x="250" y="1150" font-size="8" style="fill:black">coordenadas-inicio: -13.516573771916507, -71.97873383105876</text><text x="250" y="1160" font-size="8" style="fill:black">recomendacion: 6</text><rect x="460" y="1070" width="200" height="40" style="fill:white;stroke:black;stroke-width:1" /><text x="470" y="1080" font-size="10" style="fill:blue">agencia</text><path d="M440 1090 C460 1090 440 1090 460 1090" style="fill:transparent;stroke:black" /><rect x="526" y="1070" width="137" height="40" style="fill:green;stroke:black;stroke-width:1" /><text x="536" y="1080" font-size="8" style="fill:white">boletomachupicchu</text><rect x="460" y="1120" width="200" height="40" style="fill:white;stroke:black;stroke-width:1" /><text x="470" y="1130" font-size="10" style="fill:blue">descripcion</text><path d="M440 1090 C460 1090 440 1140 460 1140" style="fill:transparent;stroke:black" /><rect x="526" y="1120" width="137" height="40" style="fill:green;stroke:black;stroke-width:1" /><text x="536" y="1130" font-size="8" style="fill:white">Este yacimiento arqueológico es uno de los más misteriosos e indescifrables de
            la América Precolombina. Hay muchas preguntas sobre Machu Picchu y pocas respuestas, y
            quizá por ello atrae tanto.</text><rect x="460" y="1170" width="200" height="40" style="fill:white;stroke:black;stroke-width:1" /><text x="470" y="1180" font-size="10" style="fill:blue">personas-adecuadas</text><path d="M440 1090 C460 1090 440 1190 460 1190" style="fill:transparent;stroke:black" /><rect x="526" y="1170" width="137" height="40" style="fill:green;stroke:black;stroke-width:1" /><text x="536" y="1180" font-size="8" style="fill:white">1-5</text><rect x="460" y="1220" width="200" height="40" style="fill:white;stroke:black;stroke-width:1" /><text x="470" y="1230" font-size="10" style="fill:blue">referencias</text><path d="M440 1090 C460 1090 440 1240 460 1240" style="fill:transparent;stroke:black" /><rect x="680" y="1220" width="200" height="40" style="fill:white;stroke:black;stroke-width:1" /><text x="690" y="1230" font-size="10" style="fill:blue">referencia</text><path d="M660 1240 C680 1240 660 1240 680 1240" style="fill:transparent;stroke:black" /><rect x="746" y="1220" width="137" height="40" style="fill:green;stroke:black;stroke-width:1" /><text x="756" y="1230" font-size="8" style="fill:white">https://www.boletomachupicchu.com/circuitos-recorrer-machu-picchu/</text><rect x="680" y="1270" width="200" height="40" style="fill:white;stroke:black;stroke-width:1" /><text x="690" y="1280" font-size="10" style="fill:blue">referencia</text><path d="M660 1240 C680 1240 660 1290 680 1290" style="fill:transparent;stroke:black" /><rect x="746" y="1270" width="137" height="40" style="fill:green;stroke:black;stroke-width:1" /><text x="756" y="1280" font-size="8" style="fill:white">https://www.viviendodeviaje.com/machu-picchu/</text><rect x="680" y="1320" width="200" height="40" style="fill:white;stroke:black;stroke-width:1" /><text x="690" y="1330" font-size="10" style="fill:blue">referencia</text><path d="M660 1240 C680 1240 660 1340 680 1340" style="fill:transparent;stroke:black" /><rect x="746" y="1320" width="137" height="40" style="fill:green;stroke:black;stroke-width:1" /><text x="756" y="1330" font-size="8" style="fill:white">https://www.machupicchu.gob.pe/circuitos-establecidos/</text><rect x="460" y="1420" width="200" height="40" style="fill:white;stroke:black;stroke-width:1" /><text x="470" y="1430" font-size="10" style="fill:blue">hitos</text><path d="M440 1090 C460 1090 440 1440 460 1440" style="fill:transparent;stroke:black" /><rect x="680" y="1420" width="200" height="40" style="fill:white;stroke:black;stroke-width:1" /><text x="690" y="1430" font-size="10" style="fill:blue">hito</text><path d="M660 1440 C680 1440 660 1440 680 1440" style="fill:transparent;stroke:black" /><text x="690" y="1440" font-size="8" style="fill:black">nombre: Templo del Sol</text><text x="690" y="1450" font-size="8" style="fill:black">coordenadas: -13.163980558076373, -72.54473116383839</text><text x="690" y="1460" font-size="8" style="fill:black">distancia-hito-anterior: 0m</text><rect x="900" y="1420" width="200" height="40" style="fill:white;stroke:black;stroke-width:1" /><text x="910" y="1430" font-size="10" style="fill:blue">galeria-fotos</text><path d="M880 1440 C900 1440 880 1440 900 1440" style="fill:transparent;stroke:black" /><rect x="1120" y="1420" width="200" height="40" style="fill:white;stroke:black;stroke-width:1" /><text x="1130" y="1430" font-size="10" style="fill:blue">foto</text><path d="M1100 1440 C1120 1440 1100 1440 1120 1440" style="fill:transparent;stroke:black" /><rect x="1186" y="1420" width="137" height="40" style="fill:green;stroke:black;stroke-width:1" /><text x="1196" y="1430" font-size="8" style="fill:white">templo-del-sol.jpeg</text><rect x="900" y="1520" width="200" height="40" style="fill:white;stroke:black;stroke-width:1" /><text x="910" y="1530" font-size="10" style="fill:blue">galeria-videos</text><path d="M880 1440 C900 1440 880 1540 900 1540" style="fill:transparent;stroke:black" /><rect x="680" y="1620" width="200" height="40" style="fill:white;stroke:black;stroke-width:1" /><text x="690" y="1630" font-size="10" style="fill:blue">hito</text><path d="M660 1440 C680 1440 660 1640 680 1640" style="fill:transparent;stroke:black" /><text x="690" y="1640" font-size="8" style="fill:black">nombre: Plaza Sagrada</text><text x="690" y="1650" font-size="8" style="fill:black">coordenadas: -13.163531345883609, -72.54531052971046</text><text x="690" y="1660" font-size="8" style="fill:black">distancia-hito-anterior: 400m</text><rect x="900" y="1620" width="200" height="40" style="fill:white;stroke:black;stroke-width:1" /><text x="910" y="1630" font-size="10" style="fill:blue">galeria-fotos</text><path d="M880 1640 C900 1640 880 1640 900 1640" style="fill:transparent;stroke:black" /><rect x="1120" y="1620" width="200" height="40" style="fill:white;stroke:black;stroke-width:1" /><text x="1130" y="1630" font-size="10" style="fill:blue">foto</text><path d="M1100 1640 C1120 1640 1100 1640 1120 1640" style="fill:transparent;stroke:black" /><rect x="1186" y="1620" width="137" height="40" style="fill:green;stroke:black;stroke-width:1" /><text x="1196" y="1630" font-size="8" style="fill:white">plaza-sagrada.peg</text><rect x="900" y="1720" width="200" height="40" style="fill:white;stroke:black;stroke-width:1" /><text x="910" y="1730" font-size="10" style="fill:blue">galeria-videos</text><path d="M880 1640 C900 1640 880 1740 900 1740" style="fill:transparent;stroke:black" /><rect x="680" y="1820" width="200" height="40" style="fill:white;stroke:black;stroke-width:1" /><text x="690" y="1830" font-size="10" style="fill:blue">hito</text><path d="M660 1440 C680 1440 660 1840 680 1840" style="fill:transparent;stroke:black" /><text x="690" y="1840" font-size="8" style="fill:black">nombre: Intihuatana</text><text x="690" y="1850" font-size="8" style="fill:black">coordenadas: -13.163039224674163, -72.54556727966666</text><text x="690" y="1860" font-size="8" style="fill:black">distancia-hito-anterior: 250m</text><rect x="900" y="1820" width="200" height="40" style="fill:white;stroke:black;stroke-width:1" /><text x="910" y="1830" font-size="10" style="fill:blue">galeria-fotos</text><path d="M880 1840 C900 1840 880 1840 900 1840" style="fill:transparent;stroke:black" /><rect x="1120" y="1820" width="200" height="40" style="fill:white;stroke:black;stroke-width:1" /><text x="1130" y="1830" font-size="10" style="fill:blue">foto</text><path d="M1100 1840 C1120 1840 1100 1840 1120 1840" style="fill:transparent;stroke:black" /><rect x="1186" y="1820" width="137" height="40" style="fill:green;stroke:black;stroke-width:1" /><text x="1196" y="1830" font-size="8" style="fill:white">intihuatana.jpeg</text><rect x="900" y="1920" width="200" height="40" style="fill:white;stroke:black;stroke-width:1" /><text x="910" y="1930" font-size="10" style="fill:blue">galeria-videos</text><path d="M880 1840 C900 1840 880 1940 900 1940" style="fill:transparent;stroke:black" /><rect x="240" y="2120" width="200" height="40" style="fill:white;stroke:black;stroke-width:1" /><text x="250" y="2130" font-size="10" style="fill:blue">ruta</text><path d="M220 40 C240 40 220 2140 240 2140" style="fill:transparent;stroke:black" /><text x="250" y="2140" font-size="8" style="fill:black">nombre: Islas del Titicaca</text><text x="250" y="2150" font-size="8" style="fill:black">tipo: Paisajística</text><text x="250" y="2160" font-size="8" style="fill:black">medio-transporte: lancha</text><text x="250" y="2170" font-size="8" style="fill:black">duracion: 1 día</text><text x="250" y="2180" font-size="8" style="fill:black">lugar-inicio: Puno</text><text x="250" y="2190" font-size="8" style="fill:black">direccion-inicio: 5X7P+X65, Unnamed Road, Puno 21001, Peru</text><text x="250" y="2200" font-size="8" style="fill:black">coordenadas-inicio: -15.83481652922172, -70.01445231107134</text><text x="250" y="2210" font-size="8" style="fill:black">recomendacion: 10</text><rect x="460" y="2120" width="200" height="40" style="fill:white;stroke:black;stroke-width:1" /><text x="470" y="2130" font-size="10" style="fill:blue">agencia</text><path d="M440 2140 C460 2140 440 2140 460 2140" style="fill:transparent;stroke:black" /><rect x="526" y="2120" width="137" height="40" style="fill:green;stroke:black;stroke-width:1" /><text x="536" y="2130" font-size="8" style="fill:white">boletomachupicchu</text><rect x="460" y="2170" width="200" height="40" style="fill:white;stroke:black;stroke-width:1" /><text x="470" y="2180" font-size="10" style="fill:blue">descripcion</text><path d="M440 2140 C460 2140 440 2190 460 2190" style="fill:transparent;stroke:black" /><rect x="526" y="2170" width="137" height="40" style="fill:green;stroke:black;stroke-width:1" /><text x="536" y="2180" font-size="8" style="fill:white">El Lago Titicaca, cuenta con islas que mantienen vigente sus tradiciones pre
            colombinas. Existen tres importantes islas que son las más preguntadas por los viajeros
            que no le tienen miedo a las alturas.</text><rect x="460" y="2220" width="200" height="40" style="fill:white;stroke:black;stroke-width:1" /><text x="470" y="2230" font-size="10" style="fill:blue">personas-adecuadas</text><path d="M440 2140 C460 2140 440 2240 460 2240" style="fill:transparent;stroke:black" /><rect x="526" y="2220" width="137" height="40" style="fill:green;stroke:black;stroke-width:1" /><text x="536" y="2230" font-size="8" style="fill:white">1-3</text><rect x="460" y="2270" width="200" height="40" style="fill:white;stroke:black;stroke-width:1" /><text x="470" y="2280" font-size="10" style="fill:blue">referencias</text><path d="M440 2140 C460 2140 440 2290 460 2290" style="fill:transparent;stroke:black" /><rect x="680" y="2270" width="200" height="40" style="fill:white;stroke:black;stroke-width:1" /><text x="690" y="2280" font-size="10" style="fill:blue">referencia</text><path d="M660 2290 C680 2290 660 2290 680 2290" style="fill:transparent;stroke:black" /><rect x="746" y="2270" width="137" height="40" style="fill:green;stroke:black;stroke-width:1" /><text x="756" y="2280" font-size="8" style="fill:white">https://www.perurail.com/es/blog/conoce-mas-sobre-las-tres-islas-mas-importantes-del-lago-titicaca/</text><rect x="680" y="2320" width="200" height="40" style="fill:white;stroke:black;stroke-width:1" /><text x="690" y="2330" font-size="10" style="fill:blue">referencia</text><path d="M660 2290 C680 2290 660 2340 680 2340" style="fill:transparent;stroke:black" /><rect x="746" y="2320" width="137" height="40" style="fill:green;stroke:black;stroke-width:1" /><text x="756" y="2330" font-size="8" style="fill:white">https://es.wikipedia.org/wiki/Islas_flotantes_de_los_uros</text><rect x="680" y="2370" width="200" height="40" style="fill:white;stroke:black;stroke-width:1" /><text x="690" y="2380" font-size="10" style="fill:blue">referencia</text><path d="M660 2290 C680 2290 660 2390 680 2390" style="fill:transparent;stroke:black" /><rect x="746" y="2370" width="137" height="40" style="fill:green;stroke:black;stroke-width:1" /><text x="756" y="2380" font-size="8" style="fill:white">https://www.elconfidencial.com/viajes/2021-04-28/las-sorprendentes-islas-flotantes-del-lago-titicaca_3051255/</text><rect x="460" y="2470" width="200" height="40" style="fill:white;stroke:black;stroke-width:1" /><text x="470" y="2480" font-size="10" style="fill:blue">hitos</text><path d="M440 2140 C460 2140 440 2490 460 2490" style="fill:transparent;stroke:black" /><rect x="680" y="2470" width="200" height="40" style="fill:white;stroke:black;stroke-width:1" /><text x="690" y="2480" font-size="10" style="fill:blue">hito</text><path d="M660 2490 C680 2490 660 2490 680 2490" style="fill:transparent;stroke:black" /><text x="690" y="2490" font-size="8" style="fill:black">nombre: Isla flotante de los Uros</text><text x="690" y="2500" font-size="8" style="fill:black">coordenadas: -15.732675696538209, -69.89603700471716</text><text x="690" y="2510" font-size="8" style="fill:black">distancia-hito-anterior: 0km</text><rect x="900" y="2470" width="200" height="40" style="fill:white;stroke:black;stroke-width:1" /><text x="910" y="2480" font-size="10" style="fill:blue">galeria-fotos</text><path d="M880 2490 C900 2490 880 2490 900 2490" style="fill:transparent;stroke:black" /><rect x="1120" y="2470" width="200" height="40" style="fill:white;stroke:black;stroke-width:1" /><text x="1130" y="2480" font-size="10" style="fill:blue">foto</text><path d="M1100 2490 C1120 2490 1100 2490 1120 2490" style="fill:transparent;stroke:black" /><rect x="1186" y="2470" width="137" height="40" style="fill:green;stroke:black;stroke-width:1" /><text x="1196" y="2480" font-size="8" style="fill:white">isla-uros.jpeg</text><rect x="900" y="2570" width="200" height="40" style="fill:white;stroke:black;stroke-width:1" /><text x="910" y="2580" font-size="10" style="fill:blue">galeria-videos</text><path d="M880 2490 C900 2490 880 2590 900 2590" style="fill:transparent;stroke:black" /><rect x="680" y="2670" width="200" height="40" style="fill:white;stroke:black;stroke-width:1" /><text x="690" y="2680" font-size="10" style="fill:blue">hito</text><path d="M660 2490 C680 2490 660 2690 680 2690" style="fill:transparent;stroke:black" /><text x="690" y="2690" font-size="8" style="fill:black">nombre: Isla Taquile</text><text x="690" y="2700" font-size="8" style="fill:black">coordenadas: -15.770604349740433, -69.68624085159898</text><text x="690" y="2710" font-size="8" style="fill:black">distancia-hito-anterior: 7.5km</text><rect x="900" y="2670" width="200" height="40" style="fill:white;stroke:black;stroke-width:1" /><text x="910" y="2680" font-size="10" style="fill:blue">galeria-fotos</text><path d="M880 2690 C900 2690 880 2690 900 2690" style="fill:transparent;stroke:black" /><rect x="1120" y="2670" width="200" height="40" style="fill:white;stroke:black;stroke-width:1" /><text x="1130" y="2680" font-size="10" style="fill:blue">foto</text><path d="M1100 2690 C1120 2690 1100 2690 1120 2690" style="fill:transparent;stroke:black" /><rect x="1186" y="2670" width="137" height="40" style="fill:green;stroke:black;stroke-width:1" /><text x="1196" y="2680" font-size="8" style="fill:white">taquile.peg</text><rect x="900" y="2770" width="200" height="40" style="fill:white;stroke:black;stroke-width:1" /><text x="910" y="2780" font-size="10" style="fill:blue">galeria-videos</text><path d="M880 2690 C900 2690 880 2790 900 2790" style="fill:transparent;stroke:black" /><rect x="680" y="2870" width="200" height="40" style="fill:white;stroke:black;stroke-width:1" /><text x="690" y="2880" font-size="10" style="fill:blue">hito</text><path d="M660 2490 C680 2490 660 2890 680 2890" style="fill:transparent;stroke:black" /><text x="690" y="2890" font-size="8" style="fill:black">nombre: Isla Amantaní</text><text x="690" y="2900" font-size="8" style="fill:black">coordenadas: -15.66427002195403, -69.71836657535265</text><text x="690" y="2910" font-size="8" style="fill:black">distancia-hito-anterior: 4km</text><rect x="900" y="2870" width="200" height="40" style="fill:white;stroke:black;stroke-width:1" /><text x="910" y="2880" font-size="10" style="fill:blue">galeria-fotos</text><path d="M880 2890 C900 2890 880 2890 900 2890" style="fill:transparent;stroke:black" /><rect x="1120" y="2870" width="200" height="40" style="fill:white;stroke:black;stroke-width:1" /><text x="1130" y="2880" font-size="10" style="fill:blue">foto</text><path d="M1100 2890 C1120 2890 1100 2890 1120 2890" style="fill:transparent;stroke:black" /><rect x="1186" y="2870" width="137" height="40" style="fill:green;stroke:black;stroke-width:1" /><text x="1196" y="2880" font-size="8" style="fill:white">isla-amantani.jpeg</text><rect x="900" y="2970" width="200" height="40" style="fill:white;stroke:black;stroke-width:1" /><text x="910" y="2980" font-size="10" style="fill:blue">galeria-videos</text><path d="M880 2890 C900 2890 880 2990 900 2990" style="fill:transparent;stroke:black" /></svg>